<svg id="Capa_1" enable-background="new 0 0 512 512" height="512" viewBox="0 0 512 512" width="512" xmlns="http://www.w3.org/2000/svg"><g><g><g><g><g><path d="m15.002 512c-3.916.001-7.75-1.534-10.608-4.394-4.018-4.018-5.42-9.96-3.624-15.35l35.241-105.724c-23.581-39.624-36.011-84.598-36.011-130.532 0-68.381 26.629-132.668 74.981-181.02s112.639-74.98 181.019-74.98 132.667 26.629 181.02 74.98c48.351 48.352 74.98 112.639 74.98 181.02 0 68.38-26.629 132.667-74.98 181.02-48.353 48.351-112.64 74.98-181.02 74.98-45.933 0-90.907-12.43-130.533-36.011l-105.724 35.242c-1.553.517-3.154.769-4.741.769z" fill="#ffef4a"/></g></g></g></g><path d="m256 0v512c68.38 0 132.667-26.629 181.02-74.98 48.351-48.353 74.98-112.64 74.98-181.02 0-68.381-26.629-132.668-74.98-181.02-48.353-48.351-112.64-74.98-181.02-74.98z" fill="#ffb454"/><g><g><path d="m206 197.568c-3.839 0-7.678-1.465-10.606-4.394-16.208-16.207-42.579-16.207-58.787 0-5.858 5.858-15.354 5.858-21.213 0-5.857-5.857-5.857-15.355 0-21.213 27.904-27.904 73.309-27.904 101.213 0 5.858 5.857 5.858 15.355 0 21.213-2.929 2.93-6.768 4.394-10.607 4.394z" fill="#0a617d"/></g><g><path d="m356 211c-24.813 0-45-20.187-45-45s20.187-45 45-45 45 20.187 45 45-20.187 45-45 45z" fill="#dce6f5"/></g><g><path d="m256 393.863c-33.674 0-66.653-11.588-92.864-32.629-25.777-20.694-44.15-49.737-51.733-81.78-1.908-8.062 3.081-16.144 11.142-18.051 8.066-1.911 16.144 3.082 18.051 11.143 12.724 53.767 60.18 91.317 115.403 91.317s102.679-37.551 115.403-91.317c1.908-8.063 9.985-13.057 18.051-11.143 8.062 1.907 13.05 9.989 11.142 18.051-7.583 32.043-25.956 61.086-51.733 81.78-26.208 21.042-59.188 32.629-92.862 32.629z" fill="#0a617d"/></g></g><g fill="#08475e"><circle cx="356" cy="166" r="15"/><path d="m389.455 261.403c-8.066-1.914-16.144 3.08-18.051 11.143-12.724 53.767-60.18 91.317-115.403 91.317v30c33.674 0 66.653-11.588 92.864-32.629 25.777-20.694 44.15-49.737 51.733-81.78 1.907-8.061-3.082-16.143-11.143-18.051z"/></g></g></svg>